<svg xmlns="http://www.w3.org/2000/svg" xml:space="preserve" viewBox="0 0 340.589 79.133">
  <path fill="#41535D" d="M14.85 53.849V24.4H4.338v-6.047H32.49V24.4H21.978v29.449zm292.896 14.976h28.584v4.464h-28.584zm-303.408 0h25.056v4.464H4.338z"/>
  <path fill="#A61D31" d="M268.362 76.097v-1.728c.36 0 .576 0 .864-.144.216-.072.432-.216.576-.36a1.57 1.57 0 0 0 .288-.36c.072-.072.144-.216.144-.432.072-.216.072-.504.072-.792.072-.288.072-.648.072-1.152 0-.432 0-.864-.072-1.152 0-.288 0-.576-.072-.72 0-.216-.072-.36-.144-.504-.072-.144-.216-.216-.288-.288a1.568 1.568 0 0 0-.576-.36c-.288-.072-.504-.144-.864-.144v-1.728c.648 0 1.224.144 1.728.288.504.216.936.432 1.368.792.288.288.504.504.648.792.144.288.216.504.288.864.072.288.144.648.144 1.008v2.376c0 .36-.072.648-.144 1.008-.072.288-.144.576-.288.864a2.25 2.25 0 0 1-.648.792c-.432.36-.864.648-1.368.792-.504.215-1.08.288-1.728.288zm25.703-.073v-9.648h-2.16l-2.952 5.184-2.952-5.184h-2.16v9.648h2.16v-5.688l2.232 3.672h1.44l2.16-3.672v5.688h2.232zm-25.703-9.792v1.728c-.288 0-.576.072-.792.144a1.568 1.568 0 0 0-.576.36.562.562 0 0 0-.288.288c-.072.144-.144.288-.144.504-.072.144-.072.432-.072.72-.072.288-.072.72-.072 1.152 0 .504 0 .864.072 1.152 0 .288 0 .576.072.792 0 .216.072.36.144.432.072.144.144.288.288.36.144.144.36.288.576.36.216.144.504.144.792.144v1.728c-.576 0-1.152-.072-1.656-.288-.504-.144-.936-.432-1.368-.792a2.25 2.25 0 0 1-.648-.792c-.144-.288-.288-.576-.36-.864-.072-.36-.072-.648-.072-1.008v-2.376c0-.36 0-.72.072-1.008.072-.36.216-.576.36-.864.144-.288.36-.504.648-.792.432-.36.864-.576 1.368-.792.504-.144 1.08-.288 1.656-.288zm-89.208 8.064v-1.584h1.368l-1.368-3.6v.072-2.808h.792l4.104 9.648h-2.232l-.72-1.728h-1.944zm23.184-2.303v-1.368h-4.248v1.584h2.088v.36c0 .216-.072.504-.144.648-.072.216-.144.432-.36.648-.144.144-.432.288-.648.36-.288.144-.576.144-.936.144-.288 0-.576 0-.792-.144a1.568 1.568 0 0 1-.576-.36c-.144-.072-.216-.216-.288-.288-.072-.144-.144-.288-.144-.504-.072-.216-.072-.432-.072-.792-.072-.288-.072-.648-.072-1.152 0-.432 0-.864.072-1.152 0-.288 0-.576.072-.72 0-.216.072-.36.144-.504a.562.562 0 0 1 .288-.288c.144-.144.36-.288.576-.36.216-.072.504-.144.792-.144.576 0 1.008.144 1.368.36.288.144.576.504.648 1.008h2.232a3.181 3.181 0 0 0-.432-1.152c-.216-.36-.432-.648-.792-.936-.36-.288-.792-.504-1.296-.72-.504-.144-1.08-.288-1.728-.288s-1.152.144-1.656.288c-.504.216-.936.432-1.368.792-.288.288-.504.504-.648.792-.144.288-.288.504-.36.864 0 .288-.072.648-.072 1.008v2.376c0 .36.072.648.072 1.008.072.288.216.576.36.864.144.288.36.576.648.792.432.36.864.648 1.368.792.504.216 1.08.288 1.656.288.648 0 1.152-.072 1.728-.288a3.358 3.358 0 0 0 1.44-.864c.432-.288.72-.72.864-1.152.144-.504.216-1.081.216-1.8zm18.72 4.031v-1.728h-5.256V71.92h4.464v-1.656h-4.464v-2.232h5.256v-1.656h-7.416v9.648h7.416zm13.32 0v-2.016h-2.376v2.016h2.376zM253.674 73h-2.232c-.072.432-.288.72-.576 1.008-.36.288-.72.36-1.296.36-.36 0-.576 0-.864-.144a1.568 1.568 0 0 1-.576-.36l-.288-.288c-.072-.144-.072-.288-.144-.504-.072-.216-.072-.432-.072-.792 0-.288-.072-.648-.072-1.152 0-.432.072-.864.072-1.152s0-.576.072-.792c.072-.144.072-.36.144-.432.072-.144.216-.288.288-.288.144-.144.36-.288.576-.36.288-.072.504-.144.864-.144.576 0 .936.144 1.296.432.288.144.504.504.576.864h2.232c-.072-.504-.288-.864-.504-1.224-.216-.432-.576-.72-.936-1.008a6.383 6.383 0 0 0-1.224-.576 4.642 4.642 0 0 0-1.44-.216c-.648 0-1.224.144-1.728.288-.504.216-.936.432-1.368.792-.288.288-.504.504-.648.792s-.216.504-.288.864a4.25 4.25 0 0 0-.144 1.008v2.376c0 .36.072.648.144 1.008.072.288.144.576.288.864s.36.576.648.792c.432.36.864.648 1.368.792.504.216 1.08.288 1.728.288.504 0 1.008-.072 1.44-.216s.864-.288 1.224-.576c.36-.216.72-.576.936-.936.216-.431.432-.864.504-1.368zm-74.52-6.624v2.808l-1.44 3.528h1.44v1.584h-2.016l-.72 1.728h-2.304l4.104-9.648h.936zm-111.24 9.721v-1.728c.288 0 .576 0 .864-.144.216-.072.432-.216.576-.36.072-.072.144-.216.288-.36.072-.072.072-.216.144-.432s.072-.504.072-.792v-2.304c0-.288 0-.576-.072-.72-.072-.216-.072-.36-.144-.504l-.288-.288a1.568 1.568 0 0 0-.576-.36c-.288-.072-.576-.144-.864-.144v-1.728c.648 0 1.224.144 1.728.288.504.216.936.432 1.296.792.288.288.504.504.72.792.144.288.216.504.288.864.072.288.144.648.144 1.008v2.376c0 .36-.072.648-.144 1.008-.072.288-.144.576-.288.864-.216.288-.432.576-.72.792-.36.36-.792.648-1.296.792-.504.215-1.08.288-1.728.288zm23.544-3.456v-6.264h-2.16v6.192c0 .576-.144 1.008-.504 1.368-.36.288-.864.432-1.44.432-.648 0-1.08-.144-1.44-.432-.36-.36-.504-.792-.504-1.368v-6.192h-2.232v6.264c0 .576.144 1.008.36 1.44.216.432.504.792.864 1.08.36.288.792.504 1.296.648.504.216 1.08.288 1.656.288.576 0 1.08-.072 1.584-.288.504-.144.936-.36 1.368-.648.36-.288.648-.648.864-1.08.216-.433.288-.865.288-1.44zm18.792-4.608v-1.656h-8.136v1.656h2.952v7.992h2.232v-7.992h2.952zm18.072 7.991v-1.728h-5.112v-7.92h-2.16v9.648h7.272zm18.288 0v-1.728h-5.256V71.92h4.464v-1.656h-4.464v-2.232h5.256v-1.656h-7.416v9.648h7.416zm19.008-9.648h-2.304l-2.232 6.264-2.304-6.264h-2.304l3.744 9.648h1.656l3.744-9.648zm-111.96 1.657v-1.656h-8.136v1.656h2.952v7.992h2.232v-7.992h2.952zm14.256-1.801v1.728c-.288 0-.576.072-.792.144-.288.072-.432.216-.648.36a.994.994 0 0 0-.216.288 3.51 3.51 0 0 0-.216.504c0 .144-.072.432-.072.72v2.304c0 .288.072.576.072.792.072.216.144.36.216.432.072.144.144.288.216.36.216.144.36.288.648.36.216.144.504.144.792.144v1.728c-.648 0-1.224-.072-1.728-.288a3.506 3.506 0 0 1-1.296-.792c-.288-.216-.504-.504-.648-.792s-.288-.576-.36-.864c-.072-.36-.072-.648-.072-1.007-.072-.432-.072-.792-.072-1.224 0-.432 0-.792.072-1.152 0-.36 0-.72.072-1.008.072-.36.216-.576.36-.864s.36-.504.648-.792c.36-.36.864-.576 1.296-.792.503-.145 1.08-.289 1.728-.289zM4.122 4.96H336.33v2.808H4.122z"/>
  <path fill="#41535D" d="M249.066 45.785v-5.976h4.824l-4.824-13.032v-8.424h3.816l14.184 35.496h-7.776l-3.096-8.064h-7.128zm38.304-4.969V34.84h15.48v14.112c-3.744 3.6-10.152 5.472-15.192 5.472-6.696 0-12.888-2.736-15.912-9-1.368-2.88-2.088-6.048-2.088-9.432 0-3.672.792-6.984 2.304-9.864 1.584-2.88 3.816-5.04 6.84-6.552 2.232-1.224 5.112-1.8 8.496-1.8 4.392 0 7.848.936 10.296 2.736 2.448 1.872 4.032 4.464 4.752 7.704l-7.128 1.296c-.504-1.728-1.44-3.096-2.808-4.104-1.368-1.008-3.096-1.512-5.112-1.512-3.168 0-5.616 1.008-7.488 2.952-1.872 2.016-2.808 4.968-2.808 8.856 0 6.552 2.808 12.6 10.224 12.6 3.6 0 6.912-.72 9.792-2.592v-4.896h-9.648zm22.032 13.033V18.353h26.928V24.4h-19.728v7.848h19.728v5.976h-19.728v9.648h19.728v5.976h-26.928zm-60.336-35.496v8.424l-.072-.144-4.752 13.176h4.824v5.976h-7.056l-2.88 8.064h-5.832v-4.68l12.024-30.816h3.744zm-15.768 5.111 1.872-5.112h-1.872v5.112zm-90.576 30.385V24.4h-16.416v29.448h-7.2V24.4h-16.128V37c0 4.248-.216 7.272-.576 9-.36 1.8-1.08 3.24-2.16 4.464-1.008 1.224-2.448 2.16-4.176 2.88-1.728.72-4.032 1.08-6.84 1.08-3.384 0-5.904-.36-7.632-1.152-1.8-.792-3.168-1.8-4.176-3.024-1.008-1.296-1.656-2.592-2.016-3.96-.432-2.016-.72-5.04-.72-9V18.353h7.2v19.224c0 3.024.072 5.04.216 5.904.36 1.512 1.08 2.664 2.232 3.528 1.152.864 2.736 1.296 4.752 1.296 2.016 0 3.528-.36 4.536-1.224 1.08-.792 1.656-1.872 1.872-3.024.216-1.224.36-3.24.36-6.048V18.353h54.072l-.072 29.52h17.784v5.976h-24.912zm90.576-35.496v5.112l-10.872 30.384h-7.632l-12.672-35.496h7.776l8.928 26.28 8.712-26.28h5.76zm0 30.815-1.8 4.68h1.8v-4.68zm-60.552 4.681V18.353h26.28V24.4h-19.152v7.848h17.784v5.976h-17.784v9.648h19.8v5.976h-26.928zM51.93 17.776c5.256 0 9.432 1.656 12.528 4.896 3.168 3.168 4.68 7.704 4.68 13.464 0 5.76-1.512 10.224-4.68 13.464-3.096 3.24-7.272 4.824-12.456 4.824h-.072v-6.12h.072c2.808 0 5.184-1.008 6.984-3.096 1.872-2.016 2.808-5.112 2.808-9.216 0-4.032-.936-7.128-2.736-9.072-1.728-2.016-4.104-3.024-7.056-3.024h-.072v-6.12zM34.794 36.353c0-3.672.504-6.696 1.584-9.144.792-1.8 1.944-3.384 3.312-4.824a14.15 14.15 0 0 1 4.608-3.24c2.16-.936 4.752-1.368 7.632-1.368v6.12c-2.952 0-5.256 1.008-7.056 3.024-1.8 2.016-2.736 5.112-2.736 9.144s.936 7.056 2.808 9.144c1.8 2.088 4.176 3.096 6.984 3.096v6.12c-5.256 0-9.432-1.584-12.528-4.824-3.096-3.168-4.608-7.632-4.608-13.248z"/>
  <path fill="#FFF" d="M42.138 36.064c0 4.032.936 7.056 2.808 9.144s4.176 3.096 7.056 3.096c2.808 0 5.184-1.008 6.984-3.096 1.872-2.016 2.808-5.112 2.808-9.216 0-4.032-.936-7.128-2.736-9.072-1.728-2.016-4.104-3.024-7.056-3.024s-5.328 1.008-7.128 3.024c-1.8 2.017-2.736 5.113-2.736 9.144z"/>
  <path fill="#A61D31" d="M302.85 53.632V34.769h-15.48v5.976h9.648v12.887z"/>
  <path fill="none" stroke="#FFF" d="M.5.5h339.589v78.133H.5z"/>
</svg>
